<svg xmlns="http://www.w3.org/2000/svg" viewBox="0 0 89.05 40"><defs><style>.cls-1{fill:#231f20;}.cls-2{fill:#1b75bc;}</style></defs><g id="Layer_2" data-name="Layer 2"><g id="Layer_1-2" data-name="Layer 1"><path class="cls-1" d="M22.56,12.87a6.94,6.94,0,0,1,1.66,4.92v8.86a1.55,1.55,0,0,1-.44,1.13,1.59,1.59,0,0,1-2.72-1.13V17.79a4,4,0,0,0-.95-2.86,3.35,3.35,0,0,0-2.52-1,3.43,3.43,0,0,0-2.65,1.12,4,4,0,0,0-1,2.85v8.73a1.55,1.55,0,0,1-.43,1.13,1.52,1.52,0,0,1-1.15.45,1.54,1.54,0,0,1-1.13-.45,1.52,1.52,0,0,1-.45-1.13V17.79a3.94,3.94,0,0,0-.94-2.86,3.36,3.36,0,0,0-2.53-1,3.5,3.5,0,0,0-2.68,1.12,4,4,0,0,0-1,2.85v8.73a1.55,1.55,0,0,1-.44,1.13A1.51,1.51,0,0,1,2,28.23,1.54,1.54,0,0,1,.4,26.65V12.87a1.52,1.52,0,0,1,.45-1.15A1.55,1.55,0,0,1,2,11.29a1.53,1.53,0,0,1,1.11.42,1.55,1.55,0,0,1,.47,1.1,5.53,5.53,0,0,1,1.92-1.26,6.38,6.38,0,0,1,2.41-.45,6.25,6.25,0,0,1,2.84.64,5.51,5.51,0,0,1,2.06,1.81,6.57,6.57,0,0,1,2.32-1.8,7.29,7.29,0,0,1,3.1-.65A5.7,5.7,0,0,1,22.56,12.87Z"/><path class="cls-1" d="M32.7,27.22a7.73,7.73,0,0,1-3-3,8.87,8.87,0,0,1-1.09-4.43,9,9,0,0,1,1.09-4.46,7.79,7.79,0,0,1,3-3,8.9,8.9,0,0,1,4.43-1.1,8.74,8.74,0,0,1,4.38,1.1,8,8,0,0,1,3,3,9,9,0,0,1,1.1,4.46,8.87,8.87,0,0,1-1.09,4.43,7.77,7.77,0,0,1-3,3,8.7,8.7,0,0,1-4.41,1.1A8.8,8.8,0,0,1,32.7,27.22ZM40,24.79a5,5,0,0,0,1.95-2.06,6.2,6.2,0,0,0,.7-3,6.32,6.32,0,0,0-.7-3A5,5,0,0,0,40,14.67a5.71,5.71,0,0,0-5.66,0,5.11,5.11,0,0,0-2,2.07,6.21,6.21,0,0,0-.71,3,6.09,6.09,0,0,0,.71,3,5.14,5.14,0,0,0,2,2.06,5.71,5.71,0,0,0,5.66,0Z"/><path class="cls-1" d="M55.12,23.71,49.73,12.09a1.36,1.36,0,0,0-.52-.57,1.44,1.44,0,0,0-.71-.2,1.33,1.33,0,0,0-.65.15A1.38,1.38,0,0,0,47,12.74a1.25,1.25,0,0,0,.12.56l6.57,13.85a2,2,0,0,0,.62.79,1.57,1.57,0,0,0,2.29-.79l2.74-5.77A15.11,15.11,0,0,1,58.22,17Z"/><path class="cls-1" d="M1.09,39.6a2.35,2.35,0,0,1-1-1.09.29.29,0,0,1,0-.16.29.29,0,0,1,.1-.23A.44.44,0,0,1,.39,38a.44.44,0,0,1,.22.07.34.34,0,0,1,.15.18,1.72,1.72,0,0,0,.76.72,2.73,2.73,0,0,0,1.24.28,2.07,2.07,0,0,0,1.31-.4,1.31,1.31,0,0,0,.5-1.09,1.42,1.42,0,0,0-.46-1.06,2.51,2.51,0,0,0-1.39-.54,3.36,3.36,0,0,1-1.81-.72A1.83,1.83,0,0,1,.25,34a1.78,1.78,0,0,1,.32-1,2,2,0,0,1,.89-.7,3.35,3.35,0,0,1,1.3-.24,2.72,2.72,0,0,1,1.38.34,2.62,2.62,0,0,1,.93.91.4.4,0,0,1,.07.24.34.34,0,0,1-.35.33.36.36,0,0,1-.21,0,.54.54,0,0,1-.15-.15,1.87,1.87,0,0,0-1.68-.89,2.08,2.08,0,0,0-1.27.34,1.12,1.12,0,0,0-.47,1c0,.78.63,1.25,1.88,1.41a3.3,3.3,0,0,1,1.84.76,2,2,0,0,1,.6,1.52A2.09,2.09,0,0,1,5,39a2.18,2.18,0,0,1-.92.77A3.26,3.26,0,0,1,2.76,40,3.36,3.36,0,0,1,1.09,39.6Z"/><path class="cls-1" d="M14.59,32.26a.33.33,0,0,1,.11.27v7a.37.37,0,0,1-.11.28.36.36,0,0,1-.26.11.42.42,0,0,1-.29-.11.41.41,0,0,1-.11-.28V33.89l-2.76,5.64a.37.37,0,0,1-.34.19.38.38,0,0,1-.36-.24L7.72,34v5.53a.38.38,0,0,1-.38.39A.38.38,0,0,1,7,39.51v-7a.38.38,0,0,1,.39-.38.35.35,0,0,1,.34.2l3.18,6.31L14,32.35a.37.37,0,0,1,.35-.2A.33.33,0,0,1,14.59,32.26Z"/><path class="cls-1" d="M22.55,39.51a.38.38,0,0,1-.12.28.37.37,0,0,1-.27.11.39.39,0,0,1-.37-.24l-.66-1.61H17.29l-.67,1.61a.34.34,0,0,1-.36.24.37.37,0,0,1-.27-.11.4.4,0,0,1-.1-.28.47.47,0,0,1,0-.17l2.91-6.93a.4.4,0,0,1,.38-.26.37.37,0,0,1,.37.26l2.93,6.94A.42.42,0,0,1,22.55,39.51Zm-5-2.12h3.3l-1.65-4Z"/><path class="cls-1" d="M28.6,39.57a.28.28,0,0,1-.11.24.41.41,0,0,1-.28.09.39.39,0,0,1-.2,0,.34.34,0,0,1-.14-.15l-1.79-2.84H24.44v2.65a.34.34,0,0,1-.11.28.37.37,0,0,1-.27.11.38.38,0,0,1-.39-.39v-7a.37.37,0,0,1,.11-.27.34.34,0,0,1,.28-.11h1.85a2.67,2.67,0,0,1,1.29.3,2.15,2.15,0,0,1,.89.85,2.34,2.34,0,0,1,.32,1.24,2.22,2.22,0,0,1-1.52,2.16l1.62,2.6A.54.54,0,0,1,28.6,39.57Zm-2.69-3.45a1.93,1.93,0,0,0,.9-.21,1.49,1.49,0,0,0,.63-.56,1.47,1.47,0,0,0,.22-.81,1.61,1.61,0,0,0-.22-.85,1.53,1.53,0,0,0-.62-.59,1.94,1.94,0,0,0-.91-.21H24.44v3.23Z"/><path class="cls-1" d="M35.07,32.25a.35.35,0,0,1-.26.6H32.45v6.66a.38.38,0,0,1-.39.39.37.37,0,0,1-.27-.11.38.38,0,0,1-.12-.28V32.85H29.32a.34.34,0,0,1-.26-.1.36.36,0,0,1,0-.5.34.34,0,0,1,.26-.1h5.49A.35.35,0,0,1,35.07,32.25Z"/><path class="cls-1" d="M39.93,39.6a2.35,2.35,0,0,1-1-1.09.29.29,0,0,1,0-.16.29.29,0,0,1,.1-.23.43.43,0,0,1,.51,0,.34.34,0,0,1,.15.18,1.72,1.72,0,0,0,.76.72,2.73,2.73,0,0,0,1.24.28,2.07,2.07,0,0,0,1.31-.4,1.31,1.31,0,0,0,.5-1.09,1.4,1.4,0,0,0-.47-1.06,2.44,2.44,0,0,0-1.38-.54,3.36,3.36,0,0,1-1.81-.72A1.83,1.83,0,0,1,39.09,34a1.78,1.78,0,0,1,.32-1,2,2,0,0,1,.89-.7,3.35,3.35,0,0,1,1.3-.24,2.72,2.72,0,0,1,1.38.34,2.62,2.62,0,0,1,.93.91.4.4,0,0,1,.07.24.33.33,0,0,1-.18.29.34.34,0,0,1-.18,0,.35.35,0,0,1-.2,0,.54.54,0,0,1-.15-.15,1.87,1.87,0,0,0-1.68-.89,2.08,2.08,0,0,0-1.27.34,1.12,1.12,0,0,0-.47,1c0,.78.63,1.25,1.88,1.41a3.3,3.3,0,0,1,1.84.76,2,2,0,0,1,.6,1.52,2.09,2.09,0,0,1-.34,1.2,2.18,2.18,0,0,1-.92.77A3.26,3.26,0,0,1,41.6,40,3.36,3.36,0,0,1,39.93,39.6Z"/><path class="cls-1" d="M50.85,32.25a.37.37,0,0,1,.09.25.41.41,0,0,1-.07.25L48.16,37v2.48a.37.37,0,0,1-.11.28.38.38,0,0,1-.28.11.4.4,0,0,1-.27-.11.41.41,0,0,1-.11-.28V37l-2.7-4.28a.41.41,0,0,1-.08-.25.31.31,0,0,1,.11-.25.36.36,0,0,1,.27-.1.34.34,0,0,1,.18,0,.41.41,0,0,1,.14.15l2.47,4,2.47-4a.41.41,0,0,1,.16-.16.3.3,0,0,1,.19-.05A.33.33,0,0,1,50.85,32.25Z"/><path class="cls-1" d="M52.69,39.6a2.38,2.38,0,0,1-1-1.09.29.29,0,0,1,0-.16.29.29,0,0,1,.1-.23A.43.43,0,0,1,52,38a.48.48,0,0,1,.23.07.34.34,0,0,1,.15.18,1.67,1.67,0,0,0,.76.72,2.73,2.73,0,0,0,1.24.28,2.07,2.07,0,0,0,1.31-.4,1.3,1.3,0,0,0,.49-1.09,1.39,1.39,0,0,0-.46-1.06,2.47,2.47,0,0,0-1.38-.54,3.36,3.36,0,0,1-1.81-.72A1.83,1.83,0,0,1,51.86,34a1.71,1.71,0,0,1,.32-1,2,2,0,0,1,.89-.7,3.31,3.31,0,0,1,1.3-.24,2.58,2.58,0,0,1,2.31,1.25.4.4,0,0,1,.07.24.33.33,0,0,1-.18.29.34.34,0,0,1-.18,0,.35.35,0,0,1-.2,0,.54.54,0,0,1-.15-.15,1.88,1.88,0,0,0-1.68-.89,2.08,2.08,0,0,0-1.27.34,1.12,1.12,0,0,0-.47,1c0,.78.63,1.25,1.88,1.41a3.23,3.23,0,0,1,1.83.76,2,2,0,0,1,.61,1.52A2.09,2.09,0,0,1,56.6,39a2.18,2.18,0,0,1-.92.77,3.26,3.26,0,0,1-1.31.26A3.42,3.42,0,0,1,52.69,39.6Z"/><path class="cls-1" d="M63.54,32.25a.36.36,0,0,1,0,.5.34.34,0,0,1-.26.1H60.92v6.66a.41.41,0,0,1-.11.28.38.38,0,0,1-.28.11.4.4,0,0,1-.27-.11.37.37,0,0,1-.11-.28V32.85H57.79a.35.35,0,0,1-.26-.1.39.39,0,0,1,0-.5.35.35,0,0,1,.26-.1h5.49A.34.34,0,0,1,63.54,32.25Z"/><path class="cls-1" d="M64.9,39.79a.38.38,0,0,1-.12-.28v-7a.34.34,0,0,1,.12-.27.33.33,0,0,1,.27-.11h4.66a.33.33,0,0,1,.27.11.33.33,0,0,1,.11.26.33.33,0,0,1-.11.27.36.36,0,0,1-.27.1H65.56v2.74h3.1a.38.38,0,0,1,.28.11.37.37,0,0,1,.11.27.4.4,0,0,1-.11.27.41.41,0,0,1-.28.11h-3.1v2.77h4.27a.36.36,0,0,1,.27.1.33.33,0,0,1,.11.26.33.33,0,0,1-.11.27.37.37,0,0,1-.27.11H65.17A.37.37,0,0,1,64.9,39.79Z"/><path class="cls-1" d="M79.3,32.26a.37.37,0,0,1,.11.27v7a.41.41,0,0,1-.11.28.4.4,0,0,1-.27.11.39.39,0,0,1-.28-.11.38.38,0,0,1-.12-.28V33.89l-2.76,5.64a.37.37,0,0,1-.34.19.36.36,0,0,1-.35-.24L72.43,34v5.53a.38.38,0,0,1-.39.39.37.37,0,0,1-.27-.11.38.38,0,0,1-.12-.28v-7a.34.34,0,0,1,.12-.27.33.33,0,0,1,.27-.11.38.38,0,0,1,.35.2l3.17,6.31,3.12-6.31a.38.38,0,0,1,.35-.2A.36.36,0,0,1,79.3,32.26Z"/><path class="cls-2" d="M73.27,13.8A5.35,5.35,0,0,0,69.6,15a5.55,5.55,0,0,0-1.78,3.31H78.14A5.53,5.53,0,0,0,76.59,15,4.54,4.54,0,0,0,73.27,13.8Z"/><path class="cls-2" d="M73.6,0A15.46,15.46,0,0,0,58.14,15.46,15.11,15.11,0,0,0,58.22,17l2.23-4.88a1.48,1.48,0,0,1,.54-.57,1.64,1.64,0,0,1,1.47,0,1.46,1.46,0,0,1,.62.52,1.22,1.22,0,0,1,.22.72,1.32,1.32,0,0,1-.15.59l-3.83,8.08A15.46,15.46,0,1,0,73.6,0ZM72,7.38c.78-.51,1.57-1,2.38-1.47S76,5,76.84,4.57a24.79,24.79,0,0,1,2.57-1.15,25.94,25.94,0,0,1-2.27,1.67c-.78.52-1.57,1-2.38,1.48s-1.62.91-2.46,1.33a24.79,24.79,0,0,1-2.57,1.15A25.94,25.94,0,0,1,72,7.38Zm8.58,13.06a1.41,1.41,0,0,1-1,.39H67.79a5.47,5.47,0,0,0,2,3.5,6.05,6.05,0,0,0,4,1.33,5.91,5.91,0,0,0,1.93-.34,5.85,5.85,0,0,0,1.66-.84,1.65,1.65,0,0,1,1-.34,1.46,1.46,0,0,1,1.49,1.37,1.1,1.1,0,0,1-.5.92,8.46,8.46,0,0,1-2.61,1.37,9.42,9.42,0,0,1-3,.52,9.3,9.3,0,0,1-4.56-1.1,7.94,7.94,0,0,1-3.14-3,8.69,8.69,0,0,1-1.13-4.43A9.17,9.17,0,0,1,66,15.3a7.76,7.76,0,0,1,3-3.07,8.51,8.51,0,0,1,4.32-1.1,7.79,7.79,0,0,1,4.12,1.06,6.92,6.92,0,0,1,2.67,2.94A9.69,9.69,0,0,1,81,19.47,1.29,1.29,0,0,1,80.58,20.44Z"/></g></g></svg>